HIERARCHY
ROOT joint_Root
{
	OFFSET 0.0 0.0 0.0
	CHANNELS 6 Xposition Yposition Zposition Zrotation Xrotation Yrotation 
	JOINT Hips
	{
		OFFSET -0.726466 93.3139 -2.00062
		CHANNELS 6 Xposition Yposition Zposition Zrotation Xrotation Yrotation 
		JOINT Spine
		{
			OFFSET 15.7357 0.0 0.0
			CHANNELS 6 Xposition Yposition Zposition Zrotation Xrotation Yrotation 
			JOINT Chest
			{
				OFFSET 8.98455 -0.406207 0.0
				CHANNELS 6 Xposition Yposition Zposition Zrotation Xrotation Yrotation 
				JOINT Neck
				{
					OFFSET 16.3773 0.0 0.0
					CHANNELS 6 Xposition Yposition Zposition Zrotation Xrotation Yrotation 
					JOINT Head
					{
						OFFSET 6.45672 0.0 0.0
						CHANNELS 6 Xposition Yposition Zposition Zrotation Xrotation Yrotation 
						End Site
						{
							OFFSET 0.0 0.0 0.0
						}
					}
				}
				JOINT Shoulder_L
				{
					OFFSET 12.9942 -0.242716 4.98039
					CHANNELS 6 Xposition Yposition Zposition Zrotation Xrotation Yrotation 
					JOINT UpperArm_L
					{
						OFFSET 5.34809 0.0 0.0
						CHANNELS 6 Xposition Yposition Zposition Zrotation Xrotation Yrotation 
						JOINT LowerArm_L
						{
							OFFSET 24.3286 1.87007e-05 0.0
							CHANNELS 6 Xposition Yposition Zposition Zrotation Xrotation Yrotation 
							JOINT Hand_L
							{
								OFFSET 22.2916 0.0 0.0
								CHANNELS 6 Xposition Yposition Zposition Zrotation Xrotation Yrotation 
								End Site
								{
									OFFSET 0.0 0.0 0.0
								}
							}
						}
					}
				}
				JOINT Shoulder_R
				{
					OFFSET 12.9945 -0.242716 -4.98039
					CHANNELS 6 Xposition Yposition Zposition Zrotation Xrotation Yrotation 
					JOINT UpperArm_R
					{
						OFFSET -5.34813 0.0 0.0
						CHANNELS 6 Xposition Yposition Zposition Zrotation Xrotation Yrotation 
						JOINT LowerArm_R
						{
							OFFSET -24.3289 0.000322201 0.0
							CHANNELS 6 Xposition Yposition Zposition Zrotation Xrotation Yrotation 
							JOINT Hand_R
							{
								OFFSET -22.2915 -0.000108084 0.0
								CHANNELS 6 Xposition Yposition Zposition Zrotation Xrotation Yrotation 
								End Site
								{
									OFFSET 0.0 0.0 0.0
								}
							}
						}
					}
				}
			}
		}
		JOINT UpperLeg_L
		{
			OFFSET -2.19248 -6.46944 0.0
			CHANNELS 6 Xposition Yposition Zposition Zrotation Xrotation Yrotation 
			JOINT LowerLeg_L
			{
				OFFSET 39.0811 0.0 -1.23785e-05
				CHANNELS 6 Xposition Yposition Zposition Zrotation Xrotation Yrotation 
				JOINT Foot_L
				{
					OFFSET 40.9854 0.0 -1.26872e-05
					CHANNELS 6 Xposition Yposition Zposition Zrotation Xrotation Yrotation 
					JOINT Toes_L
					{
						OFFSET 11.7543 0.0 0.0
						CHANNELS 6 Xposition Yposition Zposition Zrotation Xrotation Yrotation 
						End Site
						{
							OFFSET 0.0 0.0 0.0
						}
					}
				}
			}
		}
		JOINT UpperLeg_R
		{
			OFFSET -2.19251 6.46944 0.0
			CHANNELS 6 Xposition Yposition Zposition Zrotation Xrotation Yrotation 
			JOINT LowerLeg_R
			{
				OFFSET -39.0811 -0.00228153 -0.0401928
				CHANNELS 6 Xposition Yposition Zposition Zrotation Xrotation Yrotation 
				JOINT Foot_R
				{
					OFFSET -40.9854 0.0 0.0
					CHANNELS 6 Xposition Yposition Zposition Zrotation Xrotation Yrotation 
					JOINT Toes_R
					{
						OFFSET -11.7543 0.0 0.0
						CHANNELS 6 Xposition Yposition Zposition Zrotation Xrotation Yrotation 
						End Site
						{
							OFFSET 0.0 0.0 0.0
						}
					}
				}
			}
		}
	}
}
MOTION
Frames:	6
Frame Time:	0.0333333
0.000000 0.000000 0.000000 0.000000 0.000000 -0.000000 -3.520890 90.301300 18.699600 86.453300 1.061480 6.620140 15.735700 0.000005 -0.000001 90.641800 82.894500 -89.135500 8.984550 -0.406207 -0.000000 6.443980 0.141355 3.001170 16.377300 -0.000001 -0.000001 5.576200 -3.114970 1.072110 6.456720 -0.000001 -0.000000 2.199840 -2.803270 1.302480 12.994200 -0.242716 4.980390 -89.306400 -2.170380 -72.272700 5.348090 -0.000007 -0.000001 -72.213900 38.193900 -12.009600 24.328600 0.000019 0.000005 4.819790 11.166100 -23.528900 22.291600 -0.000001 0.000005 1.802370 5.406960 -3.164380 12.994500 -0.242716 -4.980390 87.654500 6.580820 -70.333300 -5.348130 -0.000001 -0.000004 -64.419500 32.875000 -18.311900 -24.328900 0.000322 -0.000009 2.554100 8.606370 -16.605300 -22.291500 -0.000108 -0.000004 9.992800 5.350240 -1.384070 -2.192480 -6.469440 -0.000000 -173.744000 -5.928780 -13.572300 39.081100 -0.000007 -0.000012 -0.029978 0.009818 71.876100 40.985400 -0.000006 -0.000013 5.934780 -9.185770 -47.123400 11.754300 -0.000000 0.000003 -0.005984 -0.070700 -19.454200 -2.192510 6.469440 -0.000001 -173.013000 10.987600 170.333000 -39.081100 -0.002282 -0.040193 0.104943 -0.159090 32.575600 -40.985400 0.000008 0.000006 10.080300 -2.504590 -67.002400 -11.754300 -0.000006 -0.000006 -0.009914 -0.102995 -20.769300
0.000000 0.000000 0.000000 0.000000 0.000000 -0.000000 -3.425670 90.904000 21.973900 87.488500 -0.856390 6.380500 15.735700 0.000005 -0.000001 95.813700 82.888900 -94.752600 8.984550 -0.406207 -0.000000 6.372240 1.423500 2.040770 16.377300 -0.000001 -0.000001 5.752590 -2.572500 1.079760 6.456720 -0.000001 -0.000000 2.412800 -2.983370 0.646724 12.994200 -0.242716 4.980390 -89.156800 -2.523050 -71.513100 5.348090 -0.000007 -0.000001 -74.524500 36.247400 -7.873920 24.328600 0.000019 0.000005 4.229200 10.180200 -22.703100 22.291600 -0.000001 0.000005 1.685560 5.407660 -3.187670 12.994500 -0.242716 -4.980390 87.918700 6.137510 -71.226700 -5.348130 -0.000001 -0.000004 -61.812800 33.019000 -23.674000 -24.328900 0.000322 -0.000009 2.719030 8.466730 -17.884000 -22.291500 -0.000108 -0.000004 10.425200 5.355400 -1.540070 -2.192480 -6.469440 -0.000000 -175.861000 -8.319950 -17.361000 39.081100 -0.000007 -0.000012 -0.031576 0.011863 69.417700 40.985400 -0.000006 -0.000013 6.194420 -9.805260 -49.794000 11.754300 -0.000000 0.000003 -0.005885 -0.069792 -19.417100 -2.192510 6.469440 -0.000001 -174.784000 11.941700 174.015000 -39.081100 -0.002282 -0.040193 0.089802 -0.150340 29.914400 -40.985400 0.000008 0.000006 10.366300 0.336410 -68.045300 -11.754300 -0.000006 -0.000006 -0.009933 -0.103139 -20.775200
0.000000 0.000000 0.000000 0.000000 0.000000 -0.000000 -3.360620 91.375600 25.206600 88.474300 -2.904650 6.072610 15.735700 0.000005 -0.000001 100.359000 82.891500 -99.756200 8.984550 -0.406207 -0.000000 6.210920 2.541000 1.066310 16.377300 -0.000001 -0.000001 5.845460 -1.860310 1.024150 6.456720 -0.000001 -0.000000 2.498860 -2.865470 0.042240 12.994200 -0.242716 4.980390 -89.066500 -2.663850 -70.680400 5.348090 -0.000007 -0.000001 -75.911700 33.792300 -3.966050 24.328600 0.000019 0.000005 3.143420 7.692720 -22.306200 22.291600 -0.000001 0.000005 2.192620 5.418440 -3.546540 12.994500 -0.242716 -4.980390 88.115700 5.823680 -72.035800 -5.348130 -0.000001 -0.000004 -59.473800 32.470700 -28.674500 -24.328900 0.000322 -0.000009 2.825930 8.064060 -19.393700 -22.291500 -0.000108 -0.000004 10.539300 5.350780 -1.400640 -2.192480 -6.469440 -0.000000 -177.752000 -10.386600 -20.026800 39.081100 -0.000007 -0.000012 -0.019956 0.009941 63.531500 40.985400 -0.000006 -0.000013 5.927630 -9.149500 -52.371800 11.754300 -0.000000 0.000003 -0.004105 -0.052540 -18.714000 -2.192510 6.469440 -0.000001 -176.452000 11.606600 177.582000 -39.081100 -0.002282 -0.040193 0.070303 -0.131264 27.038800 -40.985400 0.000008 0.000006 10.165400 2.190230 -68.750300 -11.754300 -0.000006 -0.000006 -0.008964 -0.095726 -20.472100
0.000000 0.000000 0.000000 0.000000 0.000000 -0.000000 -3.232430 91.612700 28.309500 89.159300 -4.551680 5.498060 15.735700 0.000005 -0.000001 103.905000 82.912700 -103.620000 8.984550 -0.406207 -0.000000 5.993070 3.392760 0.391714 16.377300 -0.000001 -0.000001 5.656910 -1.322670 0.796787 6.456720 -0.000001 -0.000000 2.370940 -2.683750 -0.323706 12.994200 -0.242716 4.980390 -89.028900 -2.664340 -69.965900 5.348090 -0.000007 -0.000001 -76.631100 31.612300 -1.063220 24.328600 0.000019 0.000005 2.285800 5.753440 -21.710200 22.291600 -0.000001 0.000005 2.931650 5.428580 -3.889790 12.994500 -0.242716 -4.980390 88.277000 5.529820 -72.663600 -5.348130 -0.000001 -0.000004 -57.604600 31.063300 -33.062300 -24.328900 0.000322 -0.000009 2.870980 7.386850 -21.317600 -22.291500 -0.000108 -0.000004 10.676000 5.361890 -1.737070 -2.192480 -6.469440 -0.000000 -179.301000 -11.383300 -21.748200 39.081100 -0.000007 -0.000012 -0.013482 0.009694 54.293100 40.985400 -0.000006 -0.000013 5.648310 -8.298790 -54.247600 11.754300 -0.000000 0.000003 -0.004993 -0.061407 -19.075300 -2.192510 6.469440 -0.000001 -177.874000 11.420800 -179.517000 -39.081100 -0.002282 -0.040193 0.051915 -0.106512 24.527400 -40.985400 0.000008 0.000006 9.920360 3.800700 -69.510100 -11.754300 -0.000006 -0.000006 -0.008383 -0.091132 -20.284400
0.000000 0.000000 0.000000 0.000000 0.000000 -0.000000 -3.140210 91.605500 31.368700 89.367200 -5.642350 4.836190 15.735700 0.000005 -0.000001 106.267000 82.977800 -106.092000 8.984550 -0.406207 -0.000000 5.720680 3.921250 0.154088 16.377300 -0.000001 -0.000001 5.346050 -0.925228 0.473220 6.456720 -0.000001 -0.000000 2.214280 -2.584320 -0.542762 12.994200 -0.242716 4.980390 -89.022400 -2.610270 -69.459700 5.348090 -0.000007 -0.000001 -77.054700 29.409200 1.034400 24.328600 0.000019 0.000005 2.273770 6.019380 -20.739100 22.291600 -0.000001 0.000005 3.696000 5.429810 -3.932410 12.994500 -0.242716 -4.980390 88.420500 5.226800 -73.159700 -5.348130 -0.000001 -0.000004 -56.030100 29.482100 -36.674800 -24.328900 0.000322 -0.000009 2.859980 6.524450 -23.742400 -22.291500 -0.000108 -0.000004 11.175100 5.366830 -1.887760 -2.192480 -6.469440 -0.000000 179.946000 -11.328700 -21.875900 39.081100 -0.000007 -0.000012 -0.010418 0.011793 41.462800 40.985400 -0.000006 -0.000013 5.264530 -7.739090 -54.831500 11.754300 -0.000000 0.000003 -0.004959 -0.061072 -19.061600 -2.192510 6.469440 -0.000001 -178.843000 11.537300 -176.948000 -39.081100 -0.002282 -0.040193 0.038825 -0.085747 22.494700 -40.985400 0.000008 0.000006 9.862090 5.096340 -70.352400 -11.754300 -0.000006 -0.000006 -0.007639 -0.085057 -20.036300
0.000000 0.000000 0.000000 0.000000 0.000000 -0.000000 -3.094420 91.144300 34.460100 88.957500 -6.485740 3.924160 15.735700 0.000005 -0.000001 108.672000 83.119800 -108.392000 8.984550 -0.406207 -0.000000 5.271700 4.389810 0.358308 16.377300 -0.000001 -0.000001 4.983860 -0.738091 0.219380 6.456720 -0.000001 -0.000000 2.028450 -2.495880 -0.733914 12.994200 -0.242716 4.980390 -88.955700 -2.746520 -69.172800 5.348090 -0.000007 -0.000001 -77.460800 27.585600 2.171650 24.328600 0.000019 0.000005 2.508600 7.347490 -18.912100 22.291600 -0.000001 0.000005 4.268790 5.418210 -3.539310 12.994500 -0.242716 -4.980390 88.547900 4.913370 -73.512600 -5.348130 -0.000001 -0.000004 -54.886100 27.920900 -39.351000 -24.328900 0.000322 -0.000009 2.786100 5.601260 -26.510100 -22.291500 -0.000108 -0.000004 12.055400 5.381550 -2.346430 -2.192480 -6.469440 -0.000000 -179.668000 -10.242200 -21.374700 39.081100 -0.000007 -0.000012 -0.005146 0.010122 26.951400 40.985400 -0.000006 -0.000013 4.020720 -7.886760 -52.962100 11.754300 -0.000000 0.000003 -0.004532 -0.056867 -18.890300 -2.192510 6.469440 -0.000001 -179.204000 11.899000 -175.342000 -39.081100 -0.002282 -0.040193 0.035483 -0.079468 22.035800 -40.985400 0.000008 0.000006 9.747690 6.000290 -72.188900 -11.754300 -0.000006 -0.000006 -0.007830 -0.086642 -20.101000
